<svg xmlns="http://www.w3.org/2000/svg" width="1920" height="1080" viewBox="0 0 1920 1080"><defs>
    <radialGradient id="scene" cx="50%" cy="0%" r="120%">
      <stop offset="0%" stop-color="#16271f"/>
      <stop offset="60%" stop-color="#0e1814"/>
    </radialGradient>
    <linearGradient id="clockg" x1="0" y1="0" x2="0" y2="1">
      <stop offset="0%" stop-color="#eaf3ee"/>
      <stop offset="100%" stop-color="#9db5aa"/>
    </linearGradient>
    <pattern id="khatam" width="56" height="56" patternUnits="userSpaceOnUse" patternTransform="rotate(0)">
      <g fill="none" stroke="#1fa37a" stroke-width="1" opacity="0.05">
        <path d="M0 0 L56 56 M56 0 L0 56"/>
        <rect x="14" y="14" width="28" height="28" transform="rotate(45 28 28)"/>
      </g>
    </pattern>
  </defs><rect x="0.0" y="0.0" width="1920.0" height="1080.0" rx="0.0" ry="0.0" fill="url(#scene)" /><rect x="0.0" y="0.0" width="1920.0" height="1080.0" rx="0.0" ry="0.0" fill="url(#khatam)" /><g transform="translate(49.0,77.7) scale(1.953)" fill="#1fa37a">
    <path d="M24 3c1.6 0 3 .6 4 1.6A5.6 5.6 0 0 0 24 14a5.6 5.6 0 0 0 4-1.4A5.8 5.8 0 0 1 24 3Z"/>
    <path d="M12 26c0-8 5.4-12 12-12s12 4 12 12v2H12v-2Z" opacity="0.9"/>
    <path d="M10 28h28v15H10V28Zm10 15V36a4 4 0 0 1 8 0v7h-8Z" opacity="0.55"/>
  </g><text x="165.8" y="145.8" font-family="Noto Serif, Noto Naskh Arabic, DejaVu Serif, serif" font-size="64.0" font-weight="600" fill="#eaf3ee" text-anchor="start" font-variant-numeric="tabular-nums">Madani Academy Masjid</text><text x="1871.0" y="112.5" font-family="Noto Serif, Noto Naskh Arabic, DejaVu Serif, serif" font-size="34.0" font-weight="400" fill="#e6c768" text-anchor="end" font-variant-numeric="tabular-nums">Ramadan 12, 1445 AH</text><text x="1871.0" y="166.9" font-family="Noto Sans, Noto Sans Arabic, DejaVu Sans, sans-serif" font-size="24.0" font-weight="400" fill="#9db5aa" text-anchor="end" font-variant-numeric="tabular-nums">Friday, March 22, 2024</text><text x="938.4" y="442.8" font-family="Noto Serif, Noto Naskh Arabic, DejaVu Serif, serif" font-size="240.0" font-weight="600" fill="url(#clockg)" text-anchor="middle" letter-spacing="-1" font-variant-numeric="tabular-nums">1:36</text><text x="1224.0" y="442.8" font-family="Noto Sans, Noto Sans Arabic, DejaVu Sans, sans-serif" font-size="67.2" font-weight="600" fill="#9db5aa" text-anchor="start" font-variant-numeric="tabular-nums">PM</text><rect x="730.0" y="510.0" width="460.0" height="49.9" rx="24.9" ry="24.9" fill="#1a2a24" stroke="rgba(255,255,255,0.06)" stroke-width="1"/><text x="960.0" y="542.4" font-family="Noto Sans, Noto Sans Arabic, DejaVu Sans, sans-serif" font-size="23.8" font-weight="400" fill="#9db5aa" text-anchor="middle" letter-spacing="0.5" font-variant-numeric="tabular-nums">NEXT PRAYER   Asr  ·  2h 54m</text><rect x="49.0" y="599.0" width="292.9" height="367.2" rx="41.0" ry="41.0" fill="#1a2a24" stroke="rgba(255,255,255,0.06)" stroke-width="1" /><text x="195.4" y="687.4" font-family="Noto Sans, Noto Sans Arabic, DejaVu Sans, sans-serif" font-size="30.0" font-weight="600" fill="#9db5aa" text-anchor="middle" letter-spacing="0.5" font-variant-numeric="tabular-nums">Fajr</text><text x="195.4" y="804.6" font-family="Noto Serif, Noto Naskh Arabic, DejaVu Serif, serif" font-size="60.0" font-weight="600" fill="#eaf3ee" text-anchor="middle" font-variant-numeric="tabular-nums">5:23 am</text><text x="195.4" y="914.8" font-family="Noto Sans, Noto Sans Arabic, DejaVu Sans, sans-serif" font-size="30.0" font-weight="600" fill="#e6c768" text-anchor="middle" font-variant-numeric="tabular-nums">Iqāmah 5:43 am</text><rect x="354.8" y="599.0" width="292.9" height="367.2" rx="41.0" ry="41.0" fill="#1a2a24" stroke="rgba(255,255,255,0.06)" stroke-width="1" opacity="0.72"/><text x="501.3" y="687.4" font-family="Noto Sans, Noto Sans Arabic, DejaVu Sans, sans-serif" font-size="30.0" font-weight="600" fill="#9db5aa" text-anchor="middle" letter-spacing="0.5" font-variant-numeric="tabular-nums">Sunrise</text><text x="501.3" y="826.7" font-family="Noto Serif, Noto Naskh Arabic, DejaVu Serif, serif" font-size="60.0" font-weight="600" fill="#eaf3ee" text-anchor="middle" font-variant-numeric="tabular-nums">6:55 am</text><rect x="660.7" y="599.0" width="292.9" height="367.2" rx="41.0" ry="41.0" fill="#20342c" stroke="#1fa37a" stroke-width="2" /><rect x="701.7" y="599.0" width="210.9" height="11.0" rx="2.0" ry="2.0" fill="#1fa37a" /><text x="807.1" y="687.4" font-family="Noto Sans, Noto Sans Arabic, DejaVu Sans, sans-serif" font-size="30.0" font-weight="600" fill="#2bbf90" text-anchor="middle" letter-spacing="0.5" font-variant-numeric="tabular-nums">Jumu'ah</text><text x="807.1" y="826.7" font-family="Noto Serif, Noto Naskh Arabic, DejaVu Serif, serif" font-size="60.0" font-weight="600" fill="#eaf3ee" text-anchor="middle" font-variant-numeric="tabular-nums">1:30 pm</text><rect x="966.5" y="599.0" width="292.9" height="367.2" rx="41.0" ry="41.0" fill="#1a2a24" stroke="rgba(255,255,255,0.06)" stroke-width="1" /><text x="1112.9" y="687.4" font-family="Noto Sans, Noto Sans Arabic, DejaVu Sans, sans-serif" font-size="30.0" font-weight="600" fill="#e6c768" text-anchor="middle" letter-spacing="0.5" font-variant-numeric="tabular-nums">Asr</text><text x="1112.9" y="804.6" font-family="Noto Serif, Noto Naskh Arabic, DejaVu Serif, serif" font-size="60.0" font-weight="600" fill="#eaf3ee" text-anchor="middle" font-variant-numeric="tabular-nums">4:30 pm</text><text x="1112.9" y="914.8" font-family="Noto Sans, Noto Sans Arabic, DejaVu Sans, sans-serif" font-size="30.0" font-weight="600" fill="#e6c768" text-anchor="middle" font-variant-numeric="tabular-nums">Iqāmah 4:40 pm</text><circle cx="1112.9" cy="944.2" r="5.3" fill="#d4af37"/><rect x="1272.3" y="599.0" width="292.9" height="367.2" rx="41.0" ry="41.0" fill="#1a2a24" stroke="rgba(255,255,255,0.06)" stroke-width="1" /><text x="1418.7" y="687.4" font-family="Noto Sans, Noto Sans Arabic, DejaVu Sans, sans-serif" font-size="30.0" font-weight="600" fill="#9db5aa" text-anchor="middle" letter-spacing="0.5" font-variant-numeric="tabular-nums">Maghrib</text><text x="1418.7" y="804.6" font-family="Noto Serif, Noto Naskh Arabic, DejaVu Serif, serif" font-size="60.0" font-weight="600" fill="#eaf3ee" text-anchor="middle" font-variant-numeric="tabular-nums">7:11 pm</text><text x="1418.7" y="914.8" font-family="Noto Sans, Noto Sans Arabic, DejaVu Sans, sans-serif" font-size="30.0" font-weight="600" fill="#e6c768" text-anchor="middle" font-variant-numeric="tabular-nums">Iqāmah 7:16 pm</text><rect x="1578.1" y="599.0" width="292.9" height="367.2" rx="41.0" ry="41.0" fill="#1a2a24" stroke="rgba(255,255,255,0.06)" stroke-width="1" /><text x="1724.6" y="687.4" font-family="Noto Sans, Noto Sans Arabic, DejaVu Sans, sans-serif" font-size="30.0" font-weight="600" fill="#9db5aa" text-anchor="middle" letter-spacing="0.5" font-variant-numeric="tabular-nums">Isha</text><text x="1724.6" y="804.6" font-family="Noto Serif, Noto Naskh Arabic, DejaVu Serif, serif" font-size="60.0" font-weight="600" fill="#eaf3ee" text-anchor="middle" font-variant-numeric="tabular-nums">8:37 pm</text><text x="1724.6" y="914.8" font-family="Noto Sans, Noto Sans Arabic, DejaVu Sans, sans-serif" font-size="30.0" font-weight="600" fill="#e6c768" text-anchor="middle" font-variant-numeric="tabular-nums">Iqāmah 8:47 pm</text><text x="960.0" y="1024.5" font-family="Noto Sans, Noto Sans Arabic, DejaVu Sans, sans-serif" font-size="15.1" font-weight="400" fill="#5f786d" text-anchor="middle" letter-spacing="0.5" font-variant-numeric="tabular-nums">Muslim World League · Asr: Standard</text></svg>