<svg xmlns="http://www.w3.org/2000/svg" width="1080" height="1920" viewBox="0 0 1080 1920"><defs>
    <radialGradient id="scene" cx="50%" cy="0%" r="120%">
      <stop offset="0%" stop-color="#0c3a4d"/>
      <stop offset="60%" stop-color="#030D1A"/>
    </radialGradient>
    <linearGradient id="clockg" x1="0" y1="0" x2="0" y2="1">
      <stop offset="0%" stop-color="#F4F7FB"/>
      <stop offset="100%" stop-color="#9FACC2"/>
    </linearGradient>
    <pattern id="khatam" width="56" height="56" patternUnits="userSpaceOnUse" patternTransform="rotate(0)">
      <g fill="none" stroke="#22D3EE" stroke-width="1" opacity="0.05">
        <path d="M0 0 L56 56 M56 0 L0 56"/>
        <rect x="14" y="14" width="28" height="28" transform="rotate(45 28 28)"/>
      </g>
    </pattern>
  </defs><rect x="0.0" y="0.0" width="1080.0" height="1920.0" rx="0.0" ry="0.0" fill="url(#scene)" /><rect x="0.0" y="0.0" width="1080.0" height="1920.0" rx="0.0" ry="0.0" fill="url(#khatam)" /><g transform="translate(474.5,49.0) scale(2.728)" fill="#22D3EE">
    <path d="M24 3c1.6 0 3 .6 4 1.6A5.6 5.6 0 0 0 24 14a5.6 5.6 0 0 0 4-1.4A5.8 5.8 0 0 1 24 3Z"/>
    <path d="M12 26c0-8 5.4-12 12-12s12 4 12 12v2H12v-2Z" opacity="0.9"/>
    <path d="M10 28h28v15H10V28Zm10 15V36a4 4 0 0 1 8 0v7h-8Z" opacity="0.55"/>
  </g><text x="540.0" y="230.6" font-family="Noto Serif, Noto Naskh Arabic, DejaVu Serif, serif" font-size="64.8" font-weight="600" fill="#F4F7FB" text-anchor="middle" font-variant-numeric="tabular-nums">Madani Academy Masjid</text><text x="540.0" y="298.2" font-family="Noto Serif, Noto Naskh Arabic, DejaVu Serif, serif" font-size="30.0" font-weight="400" fill="#fbbf24" text-anchor="middle" font-variant-numeric="tabular-nums">Dhuʻl-Hijjah 15, 1445 AH</text><text x="540.0" y="348.9" font-family="Noto Sans, Noto Sans Arabic, DejaVu Sans, sans-serif" font-size="22.0" font-weight="400" fill="#9FACC2" text-anchor="middle" font-variant-numeric="tabular-nums">Friday, June 21, 2024</text><text x="520.6" y="643.7" font-family="Noto Serif, Noto Naskh Arabic, DejaVu Serif, serif" font-size="216.0" font-weight="600" fill="url(#clockg)" text-anchor="middle" letter-spacing="-1" font-variant-numeric="tabular-nums">6:05</text><text x="777.6" y="643.7" font-family="Noto Sans, Noto Sans Arabic, DejaVu Sans, sans-serif" font-size="60.5" font-weight="600" fill="#9FACC2" text-anchor="start" font-variant-numeric="tabular-nums">AM</text><rect x="280.5" y="704.2" width="518.9" height="49.9" rx="24.9" ry="24.9" fill="#0F2040" stroke="rgba(148,175,210,0.14)" stroke-width="1"/><text x="540.0" y="736.6" font-family="Noto Sans, Noto Sans Arabic, DejaVu Sans, sans-serif" font-size="23.8" font-weight="400" fill="#9FACC2" text-anchor="middle" letter-spacing="0.5" font-variant-numeric="tabular-nums">NEXT PRAYER   Jumu'ah  ·  6h 52m</text><rect x="49.0" y="949.4" width="484.5" height="260.2" rx="36.4" ry="36.4" fill="#14284d" stroke="#22D3EE" stroke-width="2" /><rect x="85.4" y="949.4" width="411.7" height="7.8" rx="2.0" ry="2.0" fill="#22D3EE" /><text x="291.3" y="1016.4" font-family="Noto Sans, Noto Sans Arabic, DejaVu Sans, sans-serif" font-size="30.0" font-weight="600" fill="#67E8F9" text-anchor="middle" letter-spacing="0.5" font-variant-numeric="tabular-nums">Fajr</text><text x="291.3" y="1095.1" font-family="Noto Serif, Noto Naskh Arabic, DejaVu Serif, serif" font-size="60.0" font-weight="600" fill="#F4F7FB" text-anchor="middle" font-variant-numeric="tabular-nums">3:19 am</text><text x="291.3" y="1173.1" font-family="Noto Sans, Noto Sans Arabic, DejaVu Sans, sans-serif" font-size="30.0" font-weight="600" fill="#fbbf24" text-anchor="middle" font-variant-numeric="tabular-nums">Iqāmah 3:39 am</text><rect x="546.5" y="949.4" width="484.5" height="260.2" rx="36.4" ry="36.4" fill="#0F2040" stroke="rgba(148,175,210,0.14)" stroke-width="1" opacity="0.72"/><text x="788.7" y="1016.4" font-family="Noto Sans, Noto Sans Arabic, DejaVu Sans, sans-serif" font-size="30.0" font-weight="600" fill="#9FACC2" text-anchor="middle" letter-spacing="0.5" font-variant-numeric="tabular-nums">Sunrise</text><text x="788.7" y="1110.7" font-family="Noto Serif, Noto Naskh Arabic, DejaVu Serif, serif" font-size="60.0" font-weight="600" fill="#F4F7FB" text-anchor="middle" font-variant-numeric="tabular-nums">5:25 am</text><rect x="49.0" y="1222.5" width="484.5" height="260.2" rx="36.4" ry="36.4" fill="#0F2040" stroke="rgba(148,175,210,0.14)" stroke-width="1" /><text x="291.3" y="1289.6" font-family="Noto Sans, Noto Sans Arabic, DejaVu Sans, sans-serif" font-size="30.0" font-weight="600" fill="#fbbf24" text-anchor="middle" letter-spacing="0.5" font-variant-numeric="tabular-nums">Jumu'ah</text><text x="291.3" y="1383.8" font-family="Noto Serif, Noto Naskh Arabic, DejaVu Serif, serif" font-size="60.0" font-weight="600" fill="#F4F7FB" text-anchor="middle" font-variant-numeric="tabular-nums">1:30 pm</text><circle cx="291.3" cy="1467.1" r="8.7" fill="#F59E0B"/><rect x="546.5" y="1222.5" width="484.5" height="260.2" rx="36.4" ry="36.4" fill="#0F2040" stroke="rgba(148,175,210,0.14)" stroke-width="1" /><text x="788.7" y="1289.6" font-family="Noto Sans, Noto Sans Arabic, DejaVu Sans, sans-serif" font-size="30.0" font-weight="600" fill="#9FACC2" text-anchor="middle" letter-spacing="0.5" font-variant-numeric="tabular-nums">Asr</text><text x="788.7" y="1368.2" font-family="Noto Serif, Noto Naskh Arabic, DejaVu Serif, serif" font-size="60.0" font-weight="600" fill="#F4F7FB" text-anchor="middle" font-variant-numeric="tabular-nums">4:58 pm</text><text x="788.7" y="1446.3" font-family="Noto Sans, Noto Sans Arabic, DejaVu Sans, sans-serif" font-size="30.0" font-weight="600" fill="#fbbf24" text-anchor="middle" font-variant-numeric="tabular-nums">Iqāmah 5:08 pm</text><rect x="49.0" y="1495.6" width="484.5" height="260.2" rx="36.4" ry="36.4" fill="#0F2040" stroke="rgba(148,175,210,0.14)" stroke-width="1" /><text x="291.3" y="1562.7" font-family="Noto Sans, Noto Sans Arabic, DejaVu Sans, sans-serif" font-size="30.0" font-weight="600" fill="#9FACC2" text-anchor="middle" letter-spacing="0.5" font-variant-numeric="tabular-nums">Maghrib</text><text x="291.3" y="1641.3" font-family="Noto Serif, Noto Naskh Arabic, DejaVu Serif, serif" font-size="60.0" font-weight="600" fill="#F4F7FB" text-anchor="middle" font-variant-numeric="tabular-nums">8:31 pm</text><text x="291.3" y="1719.4" font-family="Noto Sans, Noto Sans Arabic, DejaVu Sans, sans-serif" font-size="30.0" font-weight="600" fill="#fbbf24" text-anchor="middle" font-variant-numeric="tabular-nums">Iqāmah 8:36 pm</text><rect x="546.5" y="1495.6" width="484.5" height="260.2" rx="36.4" ry="36.4" fill="#0F2040" stroke="rgba(148,175,210,0.14)" stroke-width="1" /><text x="788.7" y="1562.7" font-family="Noto Sans, Noto Sans Arabic, DejaVu Sans, sans-serif" font-size="30.0" font-weight="600" fill="#9FACC2" text-anchor="middle" letter-spacing="0.5" font-variant-numeric="tabular-nums">Isha</text><text x="788.7" y="1641.3" font-family="Noto Serif, Noto Naskh Arabic, DejaVu Serif, serif" font-size="60.0" font-weight="600" fill="#F4F7FB" text-anchor="middle" font-variant-numeric="tabular-nums">10:28 pm</text><text x="788.7" y="1719.4" font-family="Noto Sans, Noto Sans Arabic, DejaVu Sans, sans-serif" font-size="30.0" font-weight="600" fill="#fbbf24" text-anchor="middle" font-variant-numeric="tabular-nums">Iqāmah 10:38 pm</text><text x="540.0" y="1859.5" font-family="Noto Sans, Noto Sans Arabic, DejaVu Sans, sans-serif" font-size="15.1" font-weight="400" fill="#5C6B83" text-anchor="middle" letter-spacing="0.5" font-variant-numeric="tabular-nums">Muslim World League · Asr: Standard</text></svg>