<svg xmlns="http://www.w3.org/2000/svg" width="1600" height="1000" viewBox="0 0 1600 1000" font-family="system-ui, -apple-system, 'Segoe UI', Roboto, sans-serif">
  <defs>
    <linearGradient id="scene" x1="0" y1="0" x2="1" y2="1">
      <stop offset="0" stop-color="#0c3a4d"/><stop offset="0.5" stop-color="#082230"/><stop offset="1" stop-color="#020a12"/>
    </linearGradient>
    <linearGradient id="prim" x1="0" y1="0" x2="0" y2="1">
      <stop offset="0" stop-color="#22D3EE"/><stop offset="1" stop-color="#67E8F9"/>
    </linearGradient>
    <radialGradient id="dotglow" cx="0.5" cy="0.5" r="0.5"><stop offset="0" stop-color="#34D399" stop-opacity="0.6"/><stop offset="1" stop-color="#34D399" stop-opacity="0"/></radialGradient>
    <pattern id="kh" width="60" height="60" patternUnits="userSpaceOnUse">
      <g fill="none" stroke="#22D3EE" stroke-width="0.5" opacity="0.12"><path d="M0 0 L60 60 M60 0 L0 60"/><rect x="19" y="19" width="22" height="22" transform="rotate(45 30 30)"/></g>
    </pattern>
  </defs>

  <rect width="1600" height="1000" fill="url(#scene)"/>
  <rect width="1600" height="1000" fill="url(#kh)" opacity="0.5"/>

  <!-- Topbar -->
  <g transform="translate(56,44)" fill="#22D3EE">
    <path d="M14 0c1 0 1.9.4 2.5 1A3.5 3.5 0 0 0 14 7a3.5 3.5 0 0 0 2.5-.9A3.6 3.6 0 0 1 14 0Z"/>
    <path d="M2.5 14C2.5 9 5.9 6.5 14 6.5S25.5 9 25.5 14v1.2H2.5Z" opacity="0.9"/>
    <path d="M1 15.2h26V25H1Zm9.3 9.8v-4.4a2.5 2.5 0 0 1 5 0V25Z" opacity="0.55"/>
  </g>
  <text x="92" y="68" font-size="23" font-weight="700" fill="#F4F7FB">OpenMasjid Display</text>

  <!-- Nav pills -->
  <g transform="translate(840,40)">
    <rect width="704" height="52" rx="26" fill="rgba(15,32,64,0.68)" stroke="rgba(125,200,232,0.18)"/>
    <rect x="8" y="8" width="118" height="36" rx="18" fill="rgba(34,211,238,0.14)"/>
    <text x="67" y="32" font-size="16" font-weight="600" fill="#22D3EE" text-anchor="middle">Screens</text>
    <text x="192" y="32" font-size="16" font-weight="600" fill="#9FACC2" text-anchor="middle">Timetables</text>
    <text x="330" y="32" font-size="16" font-weight="600" fill="#9FACC2" text-anchor="middle">Sources</text>
    <text x="455" y="32" font-size="16" font-weight="600" fill="#9FACC2" text-anchor="middle">Schedule</text>
    <text x="600" y="32" font-size="16" font-weight="600" fill="#9FACC2" text-anchor="middle">Settings</text>
  </g>

  <!-- Page head -->
  <text x="56" y="178" font-size="42" font-weight="700" fill="#F4F7FB" letter-spacing="-1">Screens</text>
  <text x="56" y="212" font-size="18" fill="#9FACC2">Choose what each screen shows. Changes happen within a few seconds.</text>
  <g transform="translate(1340,150)">
    <rect width="204" height="46" rx="11" fill="#22D3EE"/>
    <text x="102" y="30" font-size="17" font-weight="700" fill="#00131c" text-anchor="middle">+  Add screen</text>
  </g>

  <!-- Cards -->
  <g transform="translate(56,260)">
    <!-- Card 1 -->
    <g>
      <rect width="728" height="430" rx="20" fill="rgba(10,24,40,0.62)" stroke="rgba(125,200,232,0.16)"/>
      <circle cx="42" cy="44" r="16" fill="url(#dotglow)"/><circle cx="42" cy="44" r="6" fill="#34D399"/>
      <text x="68" y="40" font-size="23" font-weight="700" fill="#F4F7FB">Main Hall TV</text>
      <text x="68" y="64" font-size="15" fill="#9FACC2">Main hall</text>

      <rect x="28" y="92" width="672" height="58" rx="11" fill="rgba(3,13,26,0.45)" stroke="rgba(125,200,232,0.14)"/>
      <text x="52" y="128" font-size="18" font-weight="600" fill="#F4F7FB">Friday Timetable</text>
      <rect x="600" y="108" width="78" height="26" rx="13" fill="rgba(34,211,238,0.14)"/><text x="639" y="126" font-size="13" font-weight="700" fill="#22D3EE" text-anchor="middle">MANUAL</text>

      <g transform="translate(28,172)" font-size="15" font-weight="600">
        <rect width="70" height="38" rx="19" fill="rgba(3,13,26,0.45)" stroke="rgba(125,200,232,0.14)"/><text x="35" y="24" fill="#9FACC2" text-anchor="middle">Off</text>
        <rect x="82" width="190" height="38" rx="19" fill="#22D3EE"/><text x="177" y="24" fill="#00131c" text-anchor="middle">Friday Timetable</text>
        <rect x="284" width="156" height="38" rx="19" fill="rgba(3,13,26,0.45)" stroke="rgba(125,200,232,0.14)"/><text x="362" y="24" fill="#9FACC2" text-anchor="middle">Imam Camera</text>
        <rect x="452" width="150" height="38" rx="19" fill="rgba(3,13,26,0.45)" stroke="rgba(125,200,232,0.14)"/><text x="527" y="24" fill="#9FACC2" text-anchor="middle">Lobby HDMI</text>
      </g>

      <rect x="28" y="240" width="672" height="46" rx="9" fill="rgba(3,13,26,0.45)" stroke="rgba(125,200,232,0.14)"/>
      <text x="48" y="269" font-size="15" fill="#9FACC2" font-family="ui-monospace, Menlo, monospace">rtsp://192.168.1.50:8554/tv_a1b2c3</text>
      <rect x="540" y="250" width="140" height="26" rx="8" fill="none" stroke="rgba(125,200,232,0.3)"/><text x="610" y="268" font-size="13" font-weight="600" fill="#9FACC2" text-anchor="middle">Copy link</text>

      <rect x="28" y="306" width="672" height="100" rx="12" fill="#0a1f33"/>
      <text x="364" y="362" font-size="16" fill="#5C6B83" text-anchor="middle">Live preview of this screen</text>
    </g>
    <!-- Card 2 -->
    <g transform="translate(760,0)">
      <rect width="728" height="430" rx="20" fill="rgba(10,24,40,0.62)" stroke="rgba(125,200,232,0.16)"/>
      <circle cx="42" cy="44" r="6" fill="#5C6B83"/>
      <text x="68" y="40" font-size="23" font-weight="700" fill="#F4F7FB">Women's Section</text>
      <text x="68" y="64" font-size="15" fill="#9FACC2">Overflow room</text>

      <rect x="28" y="92" width="672" height="58" rx="11" fill="rgba(3,13,26,0.45)" stroke="rgba(125,200,232,0.14)"/>
      <text x="52" y="128" font-size="18" font-weight="600" fill="#F4F7FB">Imam Camera</text>
      <rect x="560" y="108" width="118" height="26" rx="13" fill="rgba(245,158,11,0.16)"/><text x="619" y="126" font-size="13" font-weight="700" fill="#F59E0B" text-anchor="middle">SCHEDULED</text>

      <g transform="translate(28,172)" font-size="15" font-weight="600">
        <rect width="70" height="38" rx="19" fill="rgba(3,13,26,0.45)" stroke="rgba(125,200,232,0.14)"/><text x="35" y="24" fill="#9FACC2" text-anchor="middle">Off</text>
        <rect x="82" width="190" height="38" rx="19" fill="rgba(3,13,26,0.45)" stroke="rgba(125,200,232,0.14)"/><text x="177" y="24" fill="#9FACC2" text-anchor="middle">Friday Timetable</text>
        <rect x="284" width="156" height="38" rx="19" fill="#22D3EE"/><text x="362" y="24" fill="#00131c" text-anchor="middle">Imam Camera</text>
        <rect x="452" width="150" height="38" rx="19" fill="rgba(3,13,26,0.45)" stroke="rgba(125,200,232,0.14)"/><text x="527" y="24" fill="#9FACC2" text-anchor="middle">Lobby HDMI</text>
      </g>

      <rect x="28" y="232" width="672" height="40" rx="10" fill="rgba(245,158,11,0.08)"/>
      <text x="48" y="257" font-size="14.5" fill="#FBBF24">Back to schedule after Jumu'ah</text>

      <rect x="28" y="290" width="672" height="46" rx="9" fill="rgba(3,13,26,0.45)" stroke="rgba(125,200,232,0.14)"/>
      <text x="48" y="319" font-size="15" fill="#9FACC2" font-family="ui-monospace, Menlo, monospace">rtsp://192.168.1.50:8554/tv_9f8e7d</text>
      <rect x="540" y="300" width="140" height="26" rx="8" fill="none" stroke="rgba(125,200,232,0.3)"/><text x="610" y="318" font-size="13" font-weight="600" fill="#9FACC2" text-anchor="middle">Copy link</text>
    </g>
  </g>
</svg>
